<?xml version="1.0" encoding="utf-8"?>
<!-- Generator: Adobe Illustrator 28.3.0, SVG Export Plug-In . SVG Version: 6.00 Build 0)  -->
<svg version="1.1" id="レイヤー_1" xmlns="http://www.w3.org/2000/svg" xmlns:xlink="http://www.w3.org/1999/xlink" x="0px"
	 y="0px" viewBox="0 0 396.9 113.4" style="enable-background:new 0 0 396.9 113.4;" xml:space="preserve">
<style type="text/css">
	.st0{fill:#17191E;}
</style>
<path class="st0" d="M34.2,97.9c-4.5-4.1-5.8-12.8-4-19.1c3.3,4,7.8,5.2,12.5,5.9c7.2,1.1,14.3,0.7,21-2.6c0.8-0.4,1.5-0.9,2.3-1.4
	c0.6,1.8,0.8,3.7,0.6,5.6c-0.5,4.6-2.8,8.1-6.4,10.8c-1.4,1.1-3,2-4.5,3c-4.6,3.1-5.8,6.7-4.1,12c0,0.1,0.1,0.3,0.2,0.6
	c-2.3-1.1-4.1-2.6-5.4-4.6c-1.4-2.1-2-4.5-2.1-7c0-1.2,0-2.5-0.2-3.7c-0.4-3-1.8-4.3-4.4-4.4c-2.7-0.1-4.8,1.6-5.4,4.2
	C34.3,97.4,34.3,97.6,34.2,97.9L34.2,97.9z"/>
<path class="st0" d="M8.4,77.7c0,0,13.4-6.5,26.8-6.5l10.1-31.3c0.4-1.5,1.5-2.5,2.7-2.5s2.4,1,2.7,2.5l10.1,31.3
	c15.9,0,26.8,6.5,26.8,6.5S65,15.8,64.9,15.7c-0.7-1.8-1.8-3-3.2-3H34.4c-1.5,0-2.5,1.2-3.2,3C31.1,15.8,8.4,77.7,8.4,77.7z"/>
<path class="st0" d="M149.5,57.8c0,5.5-6.8,8.8-16.3,8.8c-6.1,0-8.3-1.5-8.3-4.7c0-3.4,2.7-5,8.8-5c5.5,0,10.3,0.1,15.7,0.8V57.8z
	 M149.5,51c-3.4-0.8-8.5-1.2-14.5-1.2c-17.7,0-26,4.2-26,13.9c0,10.1,5.7,14,18.9,14c11.2,0,18.7-2.8,21.5-9.8h0.4
	c-0.1,1.7-0.2,3.4-0.2,4.6c0,3.6,0.6,3.9,3.5,3.9H167c-0.8-2.1-1.2-8.2-1.2-13.3c0-5.6,0.2-9.8,0.2-15.4c0-11.5-6.9-18.8-28.5-18.8
	c-9.3,0-19.6,1.6-27.5,4c0.7,3.1,1.8,9.4,2.3,13.6c6.8-3.2,16.5-4.6,24-4.6c10.3,0,13.2,2.4,13.2,7.2V51z"/>
<path class="st0" d="M187.4,61c-1.9,0.2-4.4,0.2-7,0.2c-2.8,0-5.3-0.1-7-0.3c0,0.6-0.1,1.3-0.1,1.9c0,9.5,6.2,15.1,28.1,15.1
	c20.6,0,27.3-5.5,27.3-15.2c0-9.1-4.4-13.6-24-14.6c-15.2-0.7-16.6-2.4-16.6-4.3c0-2.2,1.9-3.4,12.1-3.4c10.6,0,13.4,1.4,13.4,4.5
	v0.7c1.5-0.1,4.2-0.2,7-0.2c2.6,0,5.5,0.1,7.1,0.2c0-0.7,0.1-1.3,0.1-1.8c0-11.2-9.3-14.9-27.3-14.9c-20.2,0-27.1,5-27.1,14.6
	c0,8.7,5.5,14.1,24.9,14.9c14.3,0.5,15.9,2.1,15.9,4.3c0,2.4-2.3,3.4-12.4,3.4c-11.5,0-14.5-1.6-14.5-4.9V61z"/>
<path class="st0" d="M253.4,20.9c-5.5,5.1-15.3,10.2-20.8,11.6c0.1,2.8,0.1,8,0.1,10.8l5,0.1c-0.1,5.4-0.1,12-0.1,16.3
	c0,10.1,5.3,17.8,21.9,17.8c7,0,11.6-0.8,17.4-2c-0.6-3.7-1.3-9.4-1.5-13.8c-3.4,1.1-7.8,1.8-12.6,1.8c-6.7,0-9.4-1.8-9.4-7.1
	c0-4.6,0-8.8,0.1-12.8c8.5,0.1,17.1,0.2,22.1,0.4c-0.1-4,0.1-9.7,0.3-13.5c-7.3,0.2-15.4,0.2-22.2,0.2c0.1-3.4,0.1-6.6,0.2-9.8
	H253.4z"/>
<path class="st0" d="M298.2,41c0.1-4,0.1-7.3,0.2-10.6h-15.1c0.2,6.6,0.2,13.3,0.2,23.1s-0.1,16.6-0.2,23.1h17.2
	c-0.3-4.6-0.4-12.3-0.4-18.8c0-10.4,4.2-13.3,13.7-13.3c4.4,0,7.6,0.5,10.3,1.5c0.1-3.9,0.8-11.4,1.3-14.8c-2.8-0.8-6-1.4-9.8-1.4
	c-8.2-0.1-14.2,3.3-16.9,11.3L298.2,41z"/>
<path class="st0" d="M373.2,53.2c0,8.3-6,12.2-15.4,12.2c-9.4,0-15.4-3.7-15.4-12.2s6.1-11.7,15.4-11.7
	C367.2,41.4,373.2,44.9,373.2,53.2z M388.9,52.8c0-16.5-12.9-23.9-31.1-23.9c-18.3,0-30.7,7.4-30.7,23.9c0,16.5,11.6,25.3,30.7,25.3
	C376.9,78.1,388.9,69.2,388.9,52.8z"/>
</svg>
