<?xml version="1.0" encoding="utf-8"?>
<!-- Generator: Adobe Illustrator 28.3.0, SVG Export Plug-In . SVG Version: 6.00 Build 0)  -->
<svg version="1.1" id="レイヤー_1" xmlns="http://www.w3.org/2000/svg" xmlns:xlink="http://www.w3.org/1999/xlink" x="0px"
	 y="0px" viewBox="0 0 680.3 198.4" style="enable-background:new 0 0 680.3 198.4;" xml:space="preserve">
<style type="text/css">
	.st0{fill:#24CB71;}
	.st1{fill:#FF7237;}
	.st2{fill:#00B6FF;}
	.st3{fill:#FF3737;}
	.st4{fill:#874FFF;}
</style>
<path d="M20.2,51.1c0-22.6,18.3-40.8,40.8-40.8h97c22.6,0,40.8,18.3,40.8,40.8v97c0,22.6-18.3,40.8-40.8,40.8H61
	c-22.6,0-40.8-18.3-40.8-40.8V51.1z"/>
<path class="st0" d="M67.6,141.5c0-11.6,9.4-20.9,20.9-20.9h20.9v20.9c0,11.6-9.4,20.9-20.9,20.9C77,162.4,67.6,153,67.6,141.5z"/>
<path class="st1" d="M109.5,36.7v41.9h20.9c11.6,0,20.9-9.4,20.9-20.9c0-11.6-9.4-20.9-20.9-20.9H109.5z"/>
<ellipse class="st2" cx="130.3" cy="99.6" rx="20.9" ry="20.9"/>
<path class="st3" d="M67.6,57.7c0,11.6,9.4,20.9,20.9,20.9h20.9V36.7H88.6C77,36.7,67.6,46.1,67.6,57.7z"/>
<path class="st4" d="M67.6,99.6c0,11.6,9.4,20.9,20.9,20.9h20.9V78.6H88.6C77,78.6,67.6,88,67.6,99.6z"/>
<path d="M620.5,161.2c-5.5,0-10.5-1.1-14.8-3.2c-4.3-2.1-7.7-5-10.3-8.6c-2.5-3.7-3.7-8-3.7-12.8c0-6.3,2-11.4,6.1-15.3
	c4-3.9,9.8-6.6,17.4-8.1l19.7-4c3.9-0.8,6.6-2,8.1-3.7c1.5-1.7,2.2-4.1,2.2-7.4l2,19.7l-28.3,6.1c-3.8,0.8-6.8,2.2-8.9,4.2
	c-2,2-3,4.8-3,8.4c0,3.7,1.4,6.7,4.2,8.9c2.9,2.2,6.9,3.4,11.8,3.4c4,0,7.8-0.9,11.1-2.7c3.5-1.8,6.2-4.3,8.1-7.4
	c2-3.2,3-6.9,3-11.1V98.2c0-4-1.5-7.2-4.4-9.4c-2.8-2.4-6.7-3.5-11.6-3.5c-6.3,0-11.1,1.6-14.5,4.7c-3.4,3.1-5.3,7.6-5.9,13.3
	l-14.8-2c0.6-5.9,2.4-11,5.4-15.3c3-4.4,7.1-7.7,12.1-10.1c5.1-2.4,11.1-3.5,18-3.5c9.9,0,17.5,2.5,22.8,7.6
	c5.3,5,7.9,11.5,7.9,19.5v59.3h-14.7v-10.9c-1.5,3.7-4.4,6.9-8.9,9.6C632.2,159.9,626.8,161.2,620.5,161.2z"/>
<path d="M472.2,158.7V74.8h14.7v9.4c1.1-3.2,3.6-6.1,7.4-8.4c3.8-2.4,8.3-3.5,13.3-3.5c4.9,0,9.5,1.1,13.7,3.2
	c4.2,2.1,6.9,5.3,8.1,9.6c1.5-3.9,4.2-7,8.1-9.2c4-2.4,8.5-3.5,13.5-3.5c8.5,0,15.1,2.5,19.6,7.4s6.7,12.1,6.7,21.5v57.5h-15v-55.5
	c0-5.6-1.2-9.8-3.7-12.6c-2.4-2.9-5.8-4.4-10.5-4.4c-5.1,0-9,1.8-11.8,5.4c-2.7,3.5-4,8.6-4,15.3v51.8h-15v-55.5
	c0-5.6-1.2-9.8-3.7-12.6c-2.4-2.9-5.8-4.4-10.5-4.4c-5.1,0-9,1.8-11.8,5.4c-2.7,3.5-4,8.6-4,15.3v51.8H472.2z"/>
<path d="M414.8,188.9c-10.5,0-18.9-2.4-25.5-7.2s-10.7-11.5-12.5-20.2l14.7-3.2c1.2,5.5,3.9,9.8,7.9,12.8c4,3.1,9.2,4.7,15.3,4.7
	c7.4,0,13-1.9,16.7-5.7c3.8-3.7,5.7-9.2,5.7-16.6v-13.3c-1.7,4.1-4.8,7.5-9.4,10.1c-4.5,2.6-9.6,3.9-15.2,3.9
	c-7.4,0-13.9-1.7-19.6-5c-5.6-3.5-10-8.3-13.1-14.5c-3.1-6.2-4.7-13.3-4.7-21.3c0-8.2,1.6-15.4,4.7-21.5c3.1-6.2,7.5-10.9,13-14.3
	c5.6-3.5,12.2-5.2,19.7-5.2c5.6,0,10.7,1.3,15.3,3.9c4.7,2.5,7.9,5.5,9.6,9.2V74.8h14.7v78.7c0,7.4-1.5,13.7-4.4,19
	c-2.9,5.4-7.2,9.5-12.8,12.3C429.6,187.5,422.8,188.9,414.8,188.9z M414.5,140.9c7.2,0,12.9-2.5,17.2-7.6c4.4-5,6.6-11.7,6.6-20
	c0-8.4-2.2-15.1-6.6-20.2c-4.4-5-10.1-7.6-17.2-7.6c-7.2,0-13,2.5-17.4,7.6c-4.3,5-6.4,11.8-6.4,20.2c0,8.3,2.2,15,6.6,20
	S407.4,140.9,414.5,140.9z"/>
<path d="M344.9,158.6V74.8h15v83.9L344.9,158.6z M344.8,64V40.2h15.3V64H344.8z"/>
<path d="M258.8,158.7V40.2h15.8v118.5H258.8z M262,108.6V94.3h64.6v14.3H262z M262,54.6V40.2h70.8v14.5H262z"/>
</svg>
