<?xml version="1.0" encoding="utf-8"?>
<!-- Generator: Adobe Illustrator 28.3.0, SVG Export Plug-In . SVG Version: 6.00 Build 0)  -->
<svg version="1.1" id="Layer_1" xmlns="http://www.w3.org/2000/svg" xmlns:xlink="http://www.w3.org/1999/xlink" x="0px" y="0px"
	 viewBox="0 0 680.3 198.4" style="enable-background:new 0 0 680.3 198.4;" xml:space="preserve">
<style type="text/css">
	.st0{fill:#FF2D20;}
</style>
<g>
	<polygon class="st0" points="262.8,48.1 246.3,48.1 246.3,148.3 293.7,148.3 293.7,133.6 262.8,133.6 	"/>
	<path class="st0" d="M351.9,90.6c-2.1-3.3-5.1-6-8.9-7.9c-3.9-1.9-7.8-2.9-11.7-2.9c-5.1,0-9.7,0.9-13.9,2.8
		c-4.2,1.9-7.8,4.4-10.8,7.7c-3,3.2-5.3,7-7,11.2c-1.7,4.2-2.5,8.7-2.5,13.4c0,4.8,0.8,9.3,2.5,13.5c1.7,4.2,4,7.9,7,11.2
		c3,3.2,6.6,5.8,10.8,7.7c4.2,1.9,8.8,2.8,13.9,2.8c3.9,0,7.8-1,11.7-2.9c3.9-1.9,6.8-4.5,8.9-7.9v9h15.6V81.6h-15.6V90.6z
		 M350.4,123.1c-1,2.6-2.3,4.8-4,6.7c-1.7,1.9-3.8,3.4-6.2,4.6c-2.4,1.1-5.1,1.7-8.1,1.7c-3,0-5.6-0.6-8-1.7
		c-2.4-1.1-4.4-2.7-6.2-4.6c-1.7-1.9-3-4.2-3.9-6.7c-0.9-2.6-1.4-5.3-1.4-8.2c0-2.9,0.5-5.6,1.4-8.2c0.9-2.6,2.2-4.8,3.9-6.7
		c1.7-1.9,3.8-3.4,6.2-4.6c2.4-1.1,5.1-1.7,8-1.7c3,0,5.7,0.6,8.1,1.7c2.4,1.1,4.5,2.7,6.2,4.6c1.7,1.9,3.1,4.2,4,6.7
		c1,2.6,1.4,5.3,1.4,8.2C351.9,117.8,351.4,120.5,350.4,123.1z"/>
	<path class="st0" d="M478.7,90.6c-2.1-3.3-5.1-6-8.9-7.9c-3.9-1.9-7.8-2.9-11.7-2.9c-5.1,0-9.7,0.9-13.9,2.8
		c-4.2,1.9-7.8,4.4-10.8,7.7c-3,3.2-5.3,7-7,11.2c-1.7,4.2-2.5,8.7-2.5,13.4c0,4.8,0.8,9.3,2.5,13.5c1.7,4.2,4,7.9,7,11.2
		c3,3.2,6.6,5.8,10.8,7.7c4.2,1.9,8.8,2.8,13.9,2.8c3.9,0,7.8-1,11.7-2.9c3.9-1.9,6.8-4.5,8.9-7.9v9h15.6V81.6h-15.6V90.6z
		 M477.3,123.1c-1,2.6-2.3,4.8-4,6.7c-1.7,1.9-3.8,3.4-6.2,4.6c-2.4,1.1-5.1,1.7-8.1,1.7c-3,0-5.6-0.6-8-1.7
		c-2.4-1.1-4.4-2.7-6.2-4.6c-1.7-1.9-3-4.2-3.9-6.7c-0.9-2.6-1.4-5.3-1.4-8.2c0-2.9,0.5-5.6,1.4-8.2c0.9-2.6,2.2-4.8,3.9-6.7
		c1.7-1.9,3.8-3.4,6.2-4.6c2.4-1.1,5.1-1.7,8-1.7c3,0,5.7,0.6,8.1,1.7c2.4,1.1,4.5,2.7,6.2,4.6c1.7,1.9,3.1,4.2,4,6.7
		c1,2.6,1.4,5.3,1.4,8.2C478.7,117.8,478.2,120.5,477.3,123.1z"/>
	<rect x="649.9" y="48.1" class="st0" width="15.6" height="100.2"/>
	<polygon class="st0" points="379.8,148.3 395.4,148.3 395.4,97 422.2,97 422.2,81.6 379.8,81.6 	"/>
	<polygon class="st0" points="556.9,81.6 537.3,132.7 517.7,81.6 501.9,81.6 527.5,148.3 547.1,148.3 572.7,81.6 	"/>
	<path class="st0" d="M606.8,79.9c-19.1,0-34.2,15.7-34.2,35.1c0,21.4,14.6,35.1,36.2,35.1c12.1,0,19.8-4.6,29.2-14.7l-10.5-8.2
		c0,0-8,10.4-19.8,10.4c-13.8,0-19.6-11.1-19.6-16.9h51.8C642.5,98.7,628,79.9,606.8,79.9z M588,109.2c0.1-1.3,1.9-16.9,18.6-16.9
		c16.7,0,18.7,15.6,18.8,16.9H588z"/>
	<path class="st0" d="M198.8,47.3c0-0.1-0.1-0.2-0.1-0.2c-0.1-0.2-0.1-0.3-0.2-0.5c-0.1-0.1-0.1-0.2-0.2-0.3
		c-0.1-0.1-0.2-0.2-0.3-0.3c-0.1-0.1-0.2-0.1-0.3-0.2c-0.1-0.1-0.2-0.2-0.3-0.3c0,0,0,0,0,0c0,0,0,0,0,0L161.8,25
		c-0.9-0.5-2-0.5-3,0l-35.6,20.5c0,0,0,0,0,0c0,0,0,0,0,0c-0.1,0.1-0.2,0.2-0.3,0.3c-0.1,0.1-0.2,0.1-0.3,0.2
		c-0.1,0.1-0.2,0.2-0.3,0.3c-0.1,0.1-0.1,0.2-0.2,0.3c-0.1,0.1-0.1,0.3-0.2,0.5c0,0.1-0.1,0.2-0.1,0.2c-0.1,0.2-0.1,0.5-0.1,0.8v39
		L92,104.2V27.9c0-0.3,0-0.5-0.1-0.8c0-0.1-0.1-0.2-0.1-0.2c-0.1-0.2-0.1-0.3-0.2-0.5c-0.1-0.1-0.1-0.2-0.2-0.3
		c-0.1-0.1-0.2-0.2-0.3-0.3c-0.1-0.1-0.2-0.1-0.3-0.2c-0.1-0.1-0.2-0.2-0.3-0.3c0,0,0,0,0,0c0,0,0,0,0,0L54.9,4.8
		c-0.9-0.5-2-0.5-3,0L16.3,25.3c0,0,0,0,0,0c0,0,0,0,0,0c-0.1,0.1-0.2,0.2-0.3,0.3c-0.1,0.1-0.2,0.1-0.3,0.2
		c-0.1,0.1-0.2,0.2-0.3,0.3c-0.1,0.1-0.1,0.2-0.2,0.3c-0.1,0.1-0.1,0.3-0.2,0.5c0,0.1-0.1,0.2-0.1,0.2c-0.1,0.2-0.1,0.5-0.1,0.8V150
		c0,1.1,0.6,2,1.5,2.6l71.3,41c0.2,0.1,0.3,0.1,0.5,0.2c0.1,0,0.1,0.1,0.2,0.1c0.2,0.1,0.5,0.1,0.8,0.1s0.5,0,0.8-0.1
		c0.1,0,0.1-0.1,0.2-0.1c0.2-0.1,0.4-0.1,0.5-0.2l71.3-41c0.9-0.5,1.5-1.5,1.5-2.6v-39l34.2-19.7c0.9-0.5,1.5-1.5,1.5-2.6V48.1
		C198.9,47.8,198.9,47.6,198.8,47.3z M89,146.6l-29.6-16.8l31.1-17.9c0,0,0,0,0,0l34.2-19.7l29.7,17.1l-21.8,12.4L89,146.6z
		 M157.4,70.3v33.8L144.9,97l-17.2-9.9V53.2l12.5,7.2L157.4,70.3z M160.3,31L190,48.1l-29.7,17.1l-29.7-17.1L160.3,31z M68.8,117.5
		l-12.5,7.2V50.1l17.2-9.9L86.1,33v74.5L68.8,117.5z M53.4,10.8l29.7,17.1L53.4,45L23.7,27.9L53.4,10.8z M20.7,33l12.5,7.2l17.2,9.9
		v79.7c0,0,0,0,0,0s0,0,0,0c0,0.1,0,0.2,0,0.3c0,0.1,0,0.3,0.1,0.4c0,0,0,0,0,0c0,0.1,0.1,0.2,0.1,0.3c0.1,0.1,0.1,0.3,0.2,0.4
		c0,0,0,0,0,0c0.1,0.1,0.1,0.2,0.2,0.3c0.1,0.1,0.1,0.2,0.2,0.3c0,0,0,0,0,0c0.1,0.1,0.2,0.1,0.3,0.2c0.1,0.1,0.2,0.2,0.3,0.2
		c0,0,0,0,0,0s0,0,0,0l34.1,19.3v34.2l-65.4-37.6L20.7,33L20.7,33z M157.4,148.3L92,185.9v-34.2l48.4-27.6l17-9.7V148.3z M193,87.1
		l-29.7,17.1V70.3l17.2-9.9l12.5-7.2V87.1z"/>
</g>
</svg>
